<?xml version="1.0" encoding="UTF-8" standalone="no"?>
<!-- Created with Inkscape (http://www.inkscape.org/) -->

<svg
   width="307.02228mm"
   height="34.65057mm"
   viewBox="0 0 1160.3991 130.96278"
   version="1.1"
   id="svg1"
   sodipodi:docname="logo.svg"
   inkscape:version="1.4.2 (f4327f4, 2025-05-13)"
   xmlns:inkscape="http://www.inkscape.org/namespaces/inkscape"
   xmlns:sodipodi="http://sodipodi.sourceforge.net/DTD/sodipodi-0.dtd"
   xmlns="http://www.w3.org/2000/svg"
   xmlns:svg="http://www.w3.org/2000/svg">
  <sodipodi:namedview
     id="namedview1"
     pagecolor="#ffffff"
     bordercolor="#000000"
     borderopacity="0.25"
     inkscape:showpageshadow="2"
     inkscape:pageopacity="0.0"
     inkscape:pagecheckerboard="0"
     inkscape:deskcolor="#d1d1d1"
     inkscape:document-units="mm"
     showgrid="false"
     inkscape:zoom="0.51181853"
     inkscape:cx="486.50056"
     inkscape:cy="-159.23613"
     inkscape:window-width="1920"
     inkscape:window-height="1009"
     inkscape:window-x="-8"
     inkscape:window-y="-8"
     inkscape:window-maximized="1"
     inkscape:current-layer="layer1">
    <inkscape:page
       x="0"
       y="0"
       width="1160.399"
       height="130.96278"
       id="page2"
       margin="0"
       bleed="0" />
  </sodipodi:namedview>
  <defs
     id="defs1">
    <rect
       x="24.588005"
       y="22.620964"
       width="731.73901"
       height="433.73239"
       id="rect1" />
  </defs>
  <g
     id="layer1"
     transform="matrix(1.0982542,0,0,1.0982542,-30.530135,-39.194643)"
     style="fill:#000000;fill-opacity:1">
    <path
       d="m 73.431641,91.708485 v -7.125 q -0.84375,-4.546875 -4.5,-8.25 -4.921875,-4.875 -11.8125,-4.875 -6.9375,0 -11.859375,4.875 -4.875,4.875 -4.875,11.8125 0,6.890625 4.875,11.8125 4.921875,4.874995 11.859375,4.874995 6.890625,0 11.8125,-4.874995 3.65625,-3.703125 4.5,-8.25 z m 0,-23.015625 v -3.375 h 9.75 v 48.28125 h -9.75 v -6.04688 q -7.03125,7.26563 -16.3125,7.26563 -11.0625,0 -18.890625,-7.78125 -7.78125,-7.828125 -7.78125,-18.890625 0,-11.0625 7.78125,-18.84375 7.828125,-7.828125 18.890625,-7.828125 9.28125,0 16.3125,7.21875 z M 97.291016,38.552235 h 9.750004 v 31.96875 q 4.07812,-7.828125 11.8125,-7.828125 7.73437,0 12.32812,5.578125 4.64063,5.53125 4.78125,13.921875 v 31.35937 h -9.70312 V 82.56786 q 0,-4.171875 -2.39063,-7.125 -2.34375,-3 -7.45312,-3 -6.04688,0 -9.375,6.46875 v 34.64062 h -9.750004 z m 94.546874,53.15625 v -7.125 q -0.84375,-4.546875 -4.5,-8.25 -4.92187,-4.875 -11.8125,-4.875 -6.9375,0 -11.85937,4.875 -4.875,4.875 -4.875,11.8125 0,6.890625 4.875,11.8125 4.92187,4.874995 11.85937,4.874995 6.89063,0 11.8125,-4.874995 3.65625,-3.703125 4.5,-8.25 z m 0,-23.015625 v -3.375 h 9.75 v 48.28125 h -9.75 v -6.04688 q -7.03125,7.26563 -16.3125,7.26563 -11.0625,0 -18.89062,-7.78125 -7.78125,-7.828125 -7.78125,-18.890625 0,-11.0625 7.78125,-18.84375 7.82812,-7.828125 18.89062,-7.828125 9.28125,0 16.3125,7.21875 z m 33.60938,9.5625 v 35.29687 h -9.75 V 65.31786 h 9.75 v 5.625 q 3.04687,-8.25 12.23437,-8.25 7.82813,0 12.42188,5.578125 4.64062,5.53125 4.78125,13.921875 v 31.35937 h -9.70313 V 82.56786 q 0,-4.171875 -3.04687,-7.125 -3.04688,-3 -7.26563,-3 -4.17187,0 -7.21875,2.90625 -1.6875,1.734375 -2.20312,2.90625 z m 85.5,13.453125 V 84.53661 q -0.84375,-4.546875 -4.54688,-8.25 -4.875,-4.921875 -11.8125,-4.921875 -6.9375,0 -11.85937,4.921875 -4.875,4.921875 -4.875,11.8125 0,6.9375 4.875,11.8125 4.92187,4.875 11.85937,4.875 6.9375,0 11.8125,-4.875 3.70313,-3.703125 4.54688,-8.203125 z m 0,-23.0625 v -30.09375 h 9.75 v 74.999995 h -9.75 v -6 q -7.03125,7.26563 -16.35938,7.26563 -11.0625,0 -18.89062,-7.82813 -7.78125,-7.82812 -7.78125,-18.89062 0,-11.0625 7.78125,-18.890625 7.82812,-7.828125 18.89062,-7.828125 9.32813,0 16.35938,7.265625 z m 44.25,45.562495 q -9.14063,0 -14.71875,-5.57812 -5.57813,-5.57813 -5.71875,-13.96875 V 65.31786 h 9.75 v 28.96875 q 0,4.171875 3.04687,7.17187 3.04688,3 7.59375,3 4.17188,0 7.21875,-2.95312 3.09375,-3 3.09375,-7.21875 V 65.31786 h 9.70313 v 29.34375 q -0.14063,8.39062 -5.67188,13.96875 -5.57812,5.57812 -14.29687,5.57812 z M 395.08789,65.31786 V 47.22411 h 9.70313 v 18.09375 h 8.67187 v 9.703125 h -8.67187 v 38.531245 h -9.70313 V 75.020985 h -8.67187 V 65.31786 Z m 35.53125,0 V 47.22411 h 9.70313 v 18.09375 h 8.67187 v 9.703125 h -8.67187 v 38.531245 h -9.70313 V 75.020985 h -8.67187 V 65.31786 Z m 71.48438,26.390625 v -7.125 q -0.84375,-4.546875 -4.5,-8.25 -4.92188,-4.875 -11.8125,-4.875 -6.9375,0 -11.85938,4.875 -4.875,4.875 -4.875,11.8125 0,6.890625 4.875,11.8125 4.92188,4.874995 11.85938,4.874995 6.89062,0 11.8125,-4.874995 3.65625,-3.703125 4.5,-8.25 z m 0,-23.015625 v -3.375 h 9.75 v 48.28125 h -9.75 v -6.04688 q -7.03125,7.26563 -16.3125,7.26563 -11.0625,0 -18.89063,-7.78125 -7.78125,-7.828125 -7.78125,-18.890625 0,-11.0625 7.78125,-18.84375 7.82813,-7.828125 18.89063,-7.828125 9.28125,0 16.3125,7.21875 z m 26.625,31.875 q 2.8125,0 4.78125,1.96875 2.01562,1.96875 2.01562,4.78125 0,2.90625 -2.01562,4.875 -1.96875,1.96875 -4.78125,1.96875 -2.76563,0 -4.78125,-1.96875 -2.01563,-1.96875 -2.01563,-4.875 0,-2.8125 2.01563,-4.78125 2.01562,-1.96875 4.78125,-1.96875 z m 56.71875,-3.5625 9.70312,3.46875 q -3.5625,4.92187 -5.15625,6.51562 -7.82812,7.82813 -18.89062,7.82813 -11.01563,0 -18.84375,-7.82813 -7.82813,-7.82812 -7.82813,-18.89062 0,-11.0625 7.82813,-18.890625 7.82812,-7.828125 18.84375,-7.828125 11.0625,0 18.89062,7.828125 1.59375,1.59375 5.15625,6.421875 l -9.70312,3.5625 q -1.875,-2.296875 -2.53125,-2.953125 -4.875,-4.875 -11.8125,-4.875 -6.89063,0 -11.8125,4.921875 -4.875,4.875 -4.875,11.8125 0,6.890625 4.875,11.8125 4.92187,4.875 11.8125,4.875 6.9375,0 11.85937,-4.875 0.60938,-0.65625 2.48438,-2.90625 z m 44.8125,-35.625 q 11.0625,0 18.84375,7.828125 7.82812,7.828125 7.82812,18.890625 0,11.0625 -7.82812,18.89062 -7.78125,7.82813 -18.84375,7.82813 -11.01563,0 -18.84375,-7.82813 -7.82813,-7.82812 -7.82813,-18.89062 0,-11.0625 7.82813,-18.890625 7.82812,-7.828125 18.84375,-7.828125 z m 0,9.984375 q -6.9375,0 -11.85938,4.921875 -4.875,4.921875 -4.875,11.8125 0,6.9375 4.875,11.8125 4.92188,4.875 11.85938,4.875 6.9375,0 11.8125,-4.875 4.92187,-4.875 4.92187,-11.8125 0,-6.890625 -4.92187,-11.8125 -4.875,-4.921875 -11.8125,-4.921875 z m 37.92187,-6.046875 h 9.70313 v 4.5 q 2.8125,-7.078125 10.82812,-7.078125 7.96875,0 8.95313,8.0625 2.29687,-8.0625 12.65625,-8.0625 10.21875,0 10.21875,12.421875 v 38.39062 h -9.75 V 79.614735 q 0,-7.125 -5.76563,-7.125 -2.39062,0 -4.125,1.6875 -1.73437,1.6875 -1.73437,11.34375 v 28.031245 h -9.70313 l 0.0469,-33.937495 q 0,-7.125 -5.8125,-7.125 -2.39063,0 -4.125,1.6875 -1.5,1.453125 -1.6875,7.6875 v 31.687495 h -9.70313 z"
       id="text1"
       style="font-weight:bold;font-size:96px;font-family:'Caviar Dreams';-inkscape-font-specification:'Caviar Dreams Bold';white-space:pre"
       transform="matrix(1.5204523,0,0,1.5113054,-15.846349,-19.711966)"
       aria-label="ahandutta.com" />
  </g>
</svg>
